#N canvas 53 96 550 704 10;
#X obj 99 422 r VBAP_SPEAKER_SETUP;
#X text 56 23 VBAP object for 4 channel output;
#X text 16 79 NOTE: this needs a vbap-main object to define the loudspeaker
setup !;
#X obj 52 129 r \$0-to-GUI;
#X floatatom 149 286 3 0 100 0 spread - -;
#X obj 52 347 s \$0-from-GUI;
#X obj 231 129 inlet~ signal;
#N canvas 0 0 450 300 GUI_init 0;
#X obj 121 121 f \$0;
#X obj 117 91 bng 15 250 50 0 empty empty empty 17 7 0 10 -262144 -1
-1;
#X msg 124 144 \; \$1-to-GUI size 120 \; \$1-to-GUI src_font 40 \;
\$1-to-GUI sphere_col 27 \; \$1-to-GUI src_col 1 15;
#X obj 146 93 loadbang;
#X connect 0 0 2 0;
#X connect 1 0 0 0;
#X connect 3 0 0 0;
#X restore 442 199 pd GUI_init;
#X text 15 54 arg1: imterpolation time for positions (in ms);
#N canvas 886 436 450 300 init_arg 0;
#X obj 106 111 f \$1;
#X obj 106 67 loadbang;
#X obj 120 87 bng 15 250 50 0 empty empty empty 17 7 0 10 -262144 -1
-1;
#X text 19 34 init arg1: interpolation time (ms);
#X obj 106 145 sel 0;
#X msg 92 188 200;
#X text 55 190 std:;
#X obj 136 231 s \$0-itime;
#X connect 0 0 4 0;
#X connect 1 0 0 0;
#X connect 2 0 0 0;
#X connect 4 0 5 0;
#X connect 4 1 7 0;
#X connect 5 0 7 0;
#X restore 442 223 pd init_arg;
#N canvas 668 294 644 488 parameter_processing 0;
#X obj 64 32 r \$0-from-GUI;
#X obj 94 96 route 1;
#X obj 94 128 unpack;
#X obj 130 151 * -1;
#X text 169 150 to be consistent with vbap;
#X text 147 170 azimuth;
#X text 57 152 elevation;
#X obj 200 35 inlet spread;
#X obj 64 67 t b a;
#X obj 200 71 t b a;
#X obj 42 423 outlet trigger;
#X obj 178 421 outlet azimuth;
#X obj 302 419 outlet elevation;
#X obj 430 419 outlet spread;
#X obj 157 219 r \$0-itime;
#X obj 283 267 r \$0-itime;
#X obj 389 213 r \$0-itime;
#X obj 314 36 inlet distance;
#X obj 314 69 t b a;
#X obj 530 419 outlet dist;
#X obj 467 251 r \$0-itime;
#X obj 78 241 iemlib/speedlim 200;
#X obj 204 289 iemlib/speedlim 200;
#X obj 390 273 iemlib/speedlim 200;
#X obj 310 235 iemlib/speedlim 200;
#X connect 0 0 8 0;
#X connect 1 0 2 0;
#X connect 2 0 21 0;
#X connect 2 1 3 0;
#X connect 3 0 22 0;
#X connect 7 0 9 0;
#X connect 8 0 10 0;
#X connect 8 1 1 0;
#X connect 9 0 10 0;
#X connect 9 1 24 0;
#X connect 14 0 21 1;
#X connect 15 0 22 1;
#X connect 16 0 24 1;
#X connect 17 0 18 0;
#X connect 18 0 10 0;
#X connect 18 1 23 0;
#X connect 20 0 23 1;
#X connect 21 0 12 0;
#X connect 22 0 11 0;
#X connect 23 0 19 0;
#X connect 24 0 13 0;
#X restore 149 379 pd parameter_processing;
#N canvas 866 504 382 338 make_matrix 0;
#X obj 21 23 inlet;
#X obj 201 161 t b f;
#X obj 58 293 outlet;
#X obj 77 76 route 0 1 2 3 4 5 6 7;
#X obj 58 227 pack 1 0 0 0 0 0 0 0 0;
#X msg 58 256 matrix 8 \$1 \$2 \$3 \$4 \$5 \$6 \$7 \$8 \$9;
#X connect 0 0 3 0;
#X connect 1 0 4 0;
#X connect 1 1 4 8;
#X connect 3 0 4 1;
#X connect 3 1 4 2;
#X connect 3 2 4 3;
#X connect 3 3 4 4;
#X connect 3 4 4 5;
#X connect 3 5 4 6;
#X connect 3 6 4 7;
#X connect 3 7 1 0;
#X connect 4 0 5 0;
#X connect 5 0 2 0;
#X restore 149 489 pd make_matrix;
#X obj 247 166 import iemgui vbap_ext iemlib iemmatrix;
#X obj 312 511 r \$0-itime;
#X obj 95 653 outlet~;
#X obj 171 653 outlet~;
#X obj 253 653 outlet~;
#X obj 335 653 outlet~;
#X text 174 678 4 channel output;
#X obj 55 316 hsl 115 12 1 200 1 0 empty empty distance 30 7 0 10 -195568
-1 -262144 0 1;
#X msg 408 584 clear;
#N canvas 0 0 766 594 four-reverbs 0;
#X obj 67 179 rev1~;
#X obj 114 179 rev1~;
#X obj 160 179 rev1~;
#X obj 210 179 rev1~;
#X obj 282 55 inlet;
#X obj 67 54 inlet~;
#X obj 113 54 inlet~;
#X obj 160 53 inlet~;
#X obj 211 53 inlet~;
#X obj 67 286 outlet~;
#X obj 114 268 outlet~;
#X obj 159 246 outlet~;
#X obj 209 226 outlet~;
#X obj 339 55 inlet;
#X obj 339 76 b;
#X connect 0 0 9 0;
#X connect 1 0 10 0;
#X connect 2 0 11 0;
#X connect 3 0 12 0;
#X connect 4 0 3 1;
#X connect 4 0 2 1;
#X connect 4 0 1 1;
#X connect 4 0 0 1;
#X connect 5 0 0 0;
#X connect 6 0 1 0;
#X connect 7 0 2 0;
#X connect 8 0 3 0;
#X connect 13 0 14 0;
#X connect 14 0 3 2;
#X connect 14 0 2 2;
#X connect 14 0 1 2;
#X connect 14 0 0 2;
#X restore 290 584 pd four-reverbs;
#X floatatom 52 300 5 0 100 1 rev-dB - -;
#X obj 52 165 cube_sphere 0 60 40 1108 195567 241290 86 6;
#X obj 149 458 rvbap 0 0;
#X obj 149 533 mtx_mul~ 8 1 200 .......;
#X connect 0 0 24 0;
#X connect 3 0 23 0;
#X connect 4 0 10 0;
#X connect 6 0 25 1;
#X connect 10 0 24 0;
#X connect 10 1 24 1;
#X connect 10 2 24 2;
#X connect 10 3 24 3;
#X connect 10 4 24 4;
#X connect 11 0 25 0;
#X connect 13 0 25 2;
#X connect 19 0 10 1;
#X connect 20 0 21 5;
#X connect 21 0 14 0;
#X connect 21 1 15 0;
#X connect 21 2 16 0;
#X connect 21 3 17 0;
#X connect 22 0 21 4;
#X connect 23 0 5 0;
#X connect 24 0 11 0;
#X connect 25 0 14 0;
#X connect 25 1 15 0;
#X connect 25 2 16 0;
#X connect 25 3 17 0;
#X connect 25 4 21 0;
#X connect 25 5 21 1;
#X connect 25 6 21 2;
#X connect 25 7 21 3;
#X coords 0 -1 1 1 124 180 1 50 150;
