#N canvas 130 0 572 704 10;
#X obj 99 402 r VBAP_SPEAKER_SETUP;
#X text 56 23 VBAP object for 4 channel output;
#X text 16 79 NOTE: this needs a vbap-main object to define the loudspeaker
setup !;
#X obj 52 129 r \$0-to-GUI;
#X floatatom 149 287 3 0 100 0 spread: - -;
#X obj 52 307 s \$0-from-GUI;
#X obj 231 129 inlet~ signal;
#N canvas 0 0 450 300 GUI_init 0;
#X obj 121 121 f \$0;
#X obj 117 91 bng 15 250 50 0 empty empty empty 17 7 0 10 -262144 -1
-1;
#X msg 124 144 \; \$1-to-GUI size 120 \; \$1-to-GUI src_font 40 \;
\$1-to-GUI sphere_col 27 \; \$1-to-GUI src_col 1 15;
#X obj 146 93 loadbang;
#X connect 0 0 2 0;
#X connect 1 0 0 0;
#X connect 3 0 0 0;
#X restore 462 229 pd GUI_init;
#X text 15 54 arg1: imterpolation time for positions (in ms);
#N canvas 886 436 450 300 init_arg 0;
#X obj 106 111 f \$1;
#X obj 106 67 loadbang;
#X obj 120 87 bng 15 250 50 0 empty empty empty 17 7 0 10 -262144 -1
-1;
#X text 19 34 init arg1: interpolation time (ms);
#X obj 106 145 sel 0;
#X msg 92 188 200;
#X text 55 190 std:;
#X obj 136 231 s \$0-itime;
#X connect 0 0 4 0;
#X connect 1 0 0 0;
#X connect 2 0 0 0;
#X connect 4 0 5 0;
#X connect 4 1 7 0;
#X connect 5 0 7 0;
#X restore 462 253 pd init_arg;
#N canvas 668 294 564 488 parameter_processing 0;
#X obj 64 32 r \$0-from-GUI;
#X obj 94 96 route 1;
#X obj 94 128 unpack;
#X obj 130 151 * -1;
#X text 169 150 to be consistent with vbap;
#X text 147 170 azimuth;
#X text 57 152 elevation;
#X obj 200 35 inlet spread;
#X obj 64 67 t b a;
#X obj 200 71 t b a;
#X obj 42 423 outlet trigger;
#X obj 178 421 outlet azimuth;
#X obj 302 419 outlet elevation;
#X obj 430 419 outlet spread;
#X obj 167 229 r \$0-itime;
#X obj 399 223 r \$0-itime;
#X obj 295 277 r \$0-itime;
#X obj 88 251 iemlib/speedlim 200;
#X obj 214 299 iemlib/speedlim 200;
#X obj 320 245 iemlib/speedlim 200;
#X connect 0 0 8 0;
#X connect 1 0 2 0;
#X connect 2 0 17 0;
#X connect 2 1 3 0;
#X connect 3 0 18 0;
#X connect 7 0 9 0;
#X connect 8 0 10 0;
#X connect 8 1 1 0;
#X connect 9 0 10 0;
#X connect 9 1 19 0;
#X connect 14 0 17 1;
#X connect 15 0 19 1;
#X connect 16 0 18 1;
#X connect 17 0 12 0;
#X connect 18 0 11 0;
#X connect 19 0 13 0;
#X restore 149 359 pd parameter_processing;
#N canvas 866 504 382 338 make_matrix 0;
#X obj 21 23 inlet;
#X obj 77 76 route 0 1 2 3;
#X obj 58 227 pack 1 0 0 0 0;
#X obj 137 153 t b f;
#X msg 58 256 matrix 4 \$1 \$2 \$3 \$4 \$5;
#X obj 58 293 outlet;
#X connect 0 0 1 0;
#X connect 1 0 2 1;
#X connect 1 1 2 2;
#X connect 1 2 2 3;
#X connect 1 3 3 0;
#X connect 2 0 4 0;
#X connect 3 0 2 0;
#X connect 3 1 2 4;
#X connect 4 0 5 0;
#X restore 149 469 pd make_matrix;
#X obj 312 531 r \$0-itime;
#X obj 95 633 outlet~;
#X obj 171 633 outlet~;
#X obj 253 633 outlet~;
#X obj 335 633 outlet~;
#X text 174 658 4 channel output;
#X obj 261 194 import iemgui vbap_ext iemlib iemmatrix;
#X obj 52 165 cube_sphere 0 60 40 1108 195567 241290 59 88;
#X obj 149 442 vbap 0 0;
#X obj 149 553 mtx_mul~ 4 1 200 .......;
#X connect 0 0 20 0;
#X connect 3 0 19 0;
#X connect 4 0 10 0;
#X connect 6 0 21 1;
#X connect 10 0 20 0;
#X connect 10 1 20 1;
#X connect 10 2 20 2;
#X connect 10 3 20 3;
#X connect 11 0 21 0;
#X connect 12 0 21 2;
#X connect 19 0 5 0;
#X connect 20 0 11 0;
#X connect 21 0 13 0;
#X connect 21 1 14 0;
#X connect 21 2 15 0;
#X connect 21 3 16 0;
#X coords 0 -1 1 1 124 153 1 50 150;
