#N canvas 1520 258 944 679 10;
#X obj 173 103 hoa.3d.exchanger~ 1 fromBFormat;
#X text 377 148 esempio: il soundfiel st450 esce B-Format quindi deve
pasare per un exchanger per uscire dalla cupola;
#X obj 283 245 hoa.soundrone;
#X text 377 245 genera suoni bassi?;
#X obj 325 350 hoa.pi~ 2;
#X obj 456 350 hoa.pi~ 0.5;
#X obj 456 325 hoa.tri~ 0.05;
#X obj 195 377 hoa.3d.encoder~ 3 --------------------------;
#X obj 326 328 phasor~ 0.3;
#X text 194 301 segnale;
#X obj 199 447 hoa.3d.optim~ 3 maxRe ---------------------;
#X obj 199 480 hoa.3d.decoder~ 3 regular 20 ------------, f 43;
#X text 323 299 azimuth;
#X text 455 298 elevation;
#X obj 206 613 hoa.2d.meter~ @size 261 261 @fontname "Helvetica" @fontweight
"normal" @fontslant "roman" @fontsize 11 @receive "(null)" @send "(null)"
@channels 5 @angles 0 30 110 250 330 @offset 0 @rotation "anti-clockwise"
@vectors "energy" @interval 50 @bgcolor 0.76 0.76 0.76 1 @bdcolor 0.7
0.7 0.7 1 @coldcolor 0 0.6 0 0.8 @tepidcolor 0.6 0.73 0 0.8 @warmcolor
0.85 0.85 0 0.8 @hotcolor 1 0.6 0 0.8 @overcolor 1 0 0 0.8 @energycolor
0 0 1 0.8 @velocitycolor 1 0 0 0.8;
#X obj 206 566 hoa.2d.decoder~ 7 irregular 5 @angles 0 30 110 250 330
, f 43;
#X text 539 557 • irregular: non ha altoparlanti radialmente opposti
• ordine 7 • 5 angoli (elenco);
#X text 538 448 ottimizzatore: ottimizza il peso delle armoniche sferiche
;
#X obj 197 22 hoa.help.also;
#X text 376 99 IN b-Format 1 ordine OUT - Hoa 1 ordine;
#X text 40 21 15 febbraio 2017 - note (controlla il tutorial);
#X connect 4 0 7 1;
#X connect 5 0 7 2;
#X connect 6 0 5 1;
#X connect 8 0 4 1;
#X connect 10 0 11 0;
#X connect 10 1 11 1;
#X connect 10 2 11 2;
#X connect 10 3 11 3;
#X connect 10 4 11 4;
#X connect 10 5 11 5;
#X connect 10 6 11 6;
#X connect 10 7 11 7;
#X connect 10 8 11 8;
#X connect 10 9 11 9;
#X connect 10 10 11 10;
#X connect 10 11 11 11;
#X connect 10 12 11 12;
#X connect 10 13 11 13;
#X connect 10 14 11 14;
#X connect 10 15 11 15;
#X connect 15 0 14 0;
#X connect 15 1 14 1;
#X connect 15 2 14 2;
#X connect 15 3 14 3;
#X connect 15 4 14 4;
