#N canvas 1410 714 1016 636 10;
#X msg 164 119 offset \$1;
#X obj 164 86 c.number @size 53 17 @fontname "Helvetica" @fontweight
"normal" @fontslant "roman" @fontsize 11 @receive "(null)" @send "(null)"
@presetname "(null)" @min "(null)" @max "(null)" @minmax "(null)" "(null)"
@decimal 6 @bgcolor 0.75 0.75 0.75 1 @bdcolor 0.5 0.5 0.5 1 @textcolor
0 0 0 1;
#X text 161 65 Offset of the loudspeakers in degrees;
#X obj 163 203 hoa.2d.optim~ 7 inPhase -------------------;
#X obj 163 278 hoa.2d.meter~ @size 261 261 @fontname "Helvetica" @fontweight
"normal" @fontslant "roman" @fontsize 11 @receive "(null)" @send "(null)"
@channels 5 @angles 0 30 110 250 330 @offset 0 @rotation "anti-clockwise"
@vectors "energy" @interval 50 @bgcolor 0.76 0.76 0.76 1 @bdcolor 0.7
0.7 0.7 1 @coldcolor 0 0.6 0 0.8 @tepidcolor 0.6 0.73 0 0.8 @warmcolor
0.85 0.85 0 0.8 @hotcolor 1 0.6 0 0.8 @overcolor 1 0 0 0.8 @energycolor
0 0 1 0.8 @velocitycolor 1 0 0 0.8;
#X obj 163 231 hoa.2d.decoder~ 7 regular 9, f 43;
#X connect 0 0 4 0;
#X connect 0 0 5 0;
#X connect 1 0 0 0;
#X connect 3 0 5 0;
#X connect 3 1 5 1;
#X connect 3 2 5 2;
#X connect 3 3 5 3;
#X connect 3 4 5 4;
#X connect 3 5 5 5;
#X connect 3 6 5 6;
#X connect 3 7 5 7;
#X connect 3 8 5 8;
#X connect 3 9 5 9;
#X connect 3 10 5 10;
#X connect 3 11 5 11;
#X connect 3 12 5 12;
#X connect 3 13 5 13;
#X connect 3 14 5 14;
#X connect 5 0 4 0;
#X connect 5 1 4 1;
#X connect 5 2 4 2;
#X connect 5 3 4 3;
#X connect 5 4 4 4;
